<mxfile host="app.diagrams.net" modified="2020-10-17T01:09:33.515Z" agent="5.0 (Macintosh)" etag="mHsF2YtTYqdd00DtG1hA" version="13.8.0" type="github">
  <diagram id="6dTqedso5SLH3iyTbDmq" name="Page-1">
    <mxGraphModel dx="872" dy="415" grid="1" gridSize="10" guides="1" tooltips="1" connect="1" arrows="1" fold="1" page="1" pageScale="1" pageWidth="827" pageHeight="1169" math="0" shadow="0">
      <root>
        <mxCell id="0" />
        <mxCell id="1" parent="0" />
        <mxCell id="X8nkZtAFyhmo80Fj5aZG-1" style="edgeStyle=orthogonalEdgeStyle;orthogonalLoop=1;jettySize=auto;html=1;entryX=0;entryY=0.5;entryDx=0;entryDy=0;curved=1;" edge="1" parent="1" source="X8nkZtAFyhmo80Fj5aZG-3" target="X8nkZtAFyhmo80Fj5aZG-13">
          <mxGeometry relative="1" as="geometry" />
        </mxCell>
        <mxCell id="X8nkZtAFyhmo80Fj5aZG-2" value="" style="edgeStyle=orthogonalEdgeStyle;curved=1;orthogonalLoop=1;jettySize=auto;html=1;" edge="1" parent="1" source="X8nkZtAFyhmo80Fj5aZG-3" target="X8nkZtAFyhmo80Fj5aZG-13">
          <mxGeometry relative="1" as="geometry" />
        </mxCell>
        <mxCell id="X8nkZtAFyhmo80Fj5aZG-3" value="Usuario" style="shape=umlActor;verticalLabelPosition=bottom;verticalAlign=top;html=1;outlineConnect=0;" vertex="1" parent="1">
          <mxGeometry x="150" y="55" width="80" height="170" as="geometry" />
        </mxCell>
        <mxCell id="X8nkZtAFyhmo80Fj5aZG-4" style="edgeStyle=orthogonalEdgeStyle;curved=1;orthogonalLoop=1;jettySize=auto;html=1;entryX=1;entryY=0.3333333333333333;entryDx=0;entryDy=0;entryPerimeter=0;" edge="1" parent="1" source="X8nkZtAFyhmo80Fj5aZG-5" target="X8nkZtAFyhmo80Fj5aZG-3">
          <mxGeometry relative="1" as="geometry" />
        </mxCell>
        <mxCell id="X8nkZtAFyhmo80Fj5aZG-5" value="Analisis de datos" style="ellipse;whiteSpace=wrap;html=1;" vertex="1" parent="1">
          <mxGeometry x="320" y="55" width="120" height="80" as="geometry" />
        </mxCell>
        <mxCell id="X8nkZtAFyhmo80Fj5aZG-12" style="edgeStyle=orthogonalEdgeStyle;curved=1;orthogonalLoop=1;jettySize=auto;html=1;entryX=0.5;entryY=1;entryDx=0;entryDy=0;" edge="1" parent="1" source="X8nkZtAFyhmo80Fj5aZG-13" target="X8nkZtAFyhmo80Fj5aZG-20">
          <mxGeometry relative="1" as="geometry">
            <Array as="points">
              <mxPoint x="560" y="200" />
            </Array>
          </mxGeometry>
        </mxCell>
        <mxCell id="X8nkZtAFyhmo80Fj5aZG-13" value="Usuario y contraseÃ±a" style="rounded=0;whiteSpace=wrap;html=1;" vertex="1" parent="1">
          <mxGeometry x="320" y="160" width="90" height="80" as="geometry" />
        </mxCell>
        <mxCell id="X8nkZtAFyhmo80Fj5aZG-21" style="edgeStyle=orthogonalEdgeStyle;rounded=0;orthogonalLoop=1;jettySize=auto;html=1;entryX=1;entryY=0.5;entryDx=0;entryDy=0;" edge="1" parent="1" source="X8nkZtAFyhmo80Fj5aZG-20" target="X8nkZtAFyhmo80Fj5aZG-5">
          <mxGeometry relative="1" as="geometry" />
        </mxCell>
        <mxCell id="X8nkZtAFyhmo80Fj5aZG-20" value="Procesamiento" style="whiteSpace=wrap;html=1;aspect=fixed;" vertex="1" parent="1">
          <mxGeometry x="500" y="35" width="120" height="120" as="geometry" />
        </mxCell>
      </root>
    </mxGraphModel>
  </diagram>
</mxfile>
